HIERARCHY
ROOT Hips
{
 OFFSET 0.000000 0.000000 0.000000
 CHANNELS 6 Xposition Yposition Zposition Yrotation Xrotation Zrotation
 JOINT Chest
 {
  OFFSET 0.000000 9.585900 0.002600
  CHANNELS 3 Yrotation Xrotation Zrotation
  JOINT Chest2
  {
   OFFSET 0.000000 9.601200 -0.005300
   CHANNELS 3 Yrotation Xrotation Zrotation
   JOINT Chest3
   {
    OFFSET 0.000000 9.561800 0.000000
    CHANNELS 3 Yrotation Xrotation Zrotation
    JOINT Chest4
    {
     OFFSET 0.000000 9.552100 0.000000
     CHANNELS 3 Yrotation Xrotation Zrotation
     JOINT Neck
     {
      OFFSET 0.000000 14.453000 0.000000
      CHANNELS 3 Yrotation Xrotation Zrotation
      JOINT Head
      {
       OFFSET 0.000000 8.936500 -0.011300
       CHANNELS 3 Yrotation Xrotation Zrotation
       End Site
       {
        OFFSET 0.000000 17.073600 -0.006000
       }
      }
     }
     JOINT RightCollar
     {
      OFFSET -2.921100 9.558500 0.000000
      CHANNELS 3 Yrotation Xrotation Zrotation
      JOINT RightShoulder
      {
       OFFSET -13.519700 0.000000 0.000000
       CHANNELS 3 Yrotation Xrotation Zrotation
       JOINT RightElbow
       {
        OFFSET 0.000000 -29.696600 0.000000
        CHANNELS 3 Yrotation Xrotation Zrotation
        JOINT RightWrist
        {
         OFFSET 0.000000 -24.004700 0.000000
         CHANNELS 3 Yrotation Xrotation Zrotation
         End Site
         {
          OFFSET 0.000000 -17.728500 0.000000
         }
        }
       }
      }
     }
     JOINT LeftCollar
     {
      OFFSET 2.921100 9.558500 0.000000
      CHANNELS 3 Yrotation Xrotation Zrotation
      JOINT LeftShoulder
      {
       OFFSET 13.519700 0.000000 0.000000
       CHANNELS 3 Yrotation Xrotation Zrotation
       JOINT LeftElbow
       {
        OFFSET 0.000000 -29.696600 0.000000
        CHANNELS 3 Yrotation Xrotation Zrotation
        JOINT LeftWrist
        {
         OFFSET 0.000000 -24.004700 0.000000
         CHANNELS 3 Yrotation Xrotation Zrotation
         End Site
         {
          OFFSET 0.000000 -17.728500 0.000000
         }
        }
       }
      }
     }
    }
   }
  }
 }
 JOINT RightHip
 {
  OFFSET -7.771700 -0.012900 -0.001300
  CHANNELS 3 Yrotation Xrotation Zrotation
  JOINT RightKnee
  {
   OFFSET 0.000000 -40.869800 0.001200
   CHANNELS 3 Yrotation Xrotation Zrotation
   JOINT RightAnkle
   {
    OFFSET 0.000000 -39.717900 0.002100
    CHANNELS 3 Yrotation Xrotation Zrotation
    JOINT RightToe
    {
     OFFSET 0.000000 -4.965400 11.033500
     CHANNELS 3 Yrotation Xrotation Zrotation
     End Site
     {
      OFFSET 0.000000 -1.423100 5.872300
     }
    }
   }
  }
 }
 JOINT LeftHip
 {
  OFFSET 7.771700 -0.012900 -0.001300
  CHANNELS 3 Yrotation Xrotation Zrotation
  JOINT LeftKnee
  {
   OFFSET 0.000000 -40.869800 0.001200
   CHANNELS 3 Yrotation Xrotation Zrotation
   JOINT LeftAnkle
   {
    OFFSET 0.000000 -39.717900 0.002100
    CHANNELS 3 Yrotation Xrotation Zrotation
    JOINT LeftToe
    {
     OFFSET 0.000000 -4.965400 11.033500
     CHANNELS 3 Yrotation Xrotation Zrotation
     End Site
     {
      OFFSET 0.000000 -1.423100 5.872300
     }
    }
   }
  }
 }
}
MOTION
Frames: 11
Frame Time: 0.008333
0.000000 85.388000 0.000000 0.000000 -5.767877 0.000000 0.000000 11.653817 0.000000 0.000000 -5.885947 0.000000 0.000000 -0.000000 0.000000 0.000000 -0.000000 0.000000 0.000000 12.528835 0.000000 0.000000 0.711642 0.000000 0.000000 -0.000000 0.000000 0.000000 0.000000 -90.000000 0.000000 -2.309062 0.000000 0.000000 2.309062 0.000000 0.000000 -0.000000 0.000000 0.000000 -0.000000 90.000000 0.000000 -2.309062 0.000000 0.000000 2.309062 0.000000 0.000000 8.520406 0.000000 0.000000 1.905762 0.000000 -0.000000 -4.658285 0.000000 0.000000 -0.000000 0.000000 0.000000 8.520406 0.000000 0.000000 1.905762 0.000000 -0.000000 -4.658285 0.000000 0.000000 -0.000000 0.000000
-69.625621 46.639658 -3.109300 174.502829 -30.641010 -3.082133 -0.621741 18.319874 1.772251 -0.110709 2.081823 0.221524 -0.215137 3.432653 0.345104 -0.616047 15.984359 1.650868 -5.276176 18.746717 1.223836 -9.953595 -0.679000 3.878325 3.029912 -0.084772 -2.870078 5.913293 -23.585573 -26.410678 -50.893850 -73.813897 90.488805 5.008129 9.579281 -11.144564 -0.344807 -0.815838 2.380847 -6.256963 -3.104836 11.383183 76.326243 -82.998450 -110.721983 -4.879228 12.377488 5.677643 -6.146613 -55.947350 -4.140859 -155.248369 79.169704 -145.087403 -8.862864 -13.816228 -7.565707 -0.003974 -0.155835 0.064976 0.165843 -58.422803 11.813752 -116.568877 81.618633 -120.470030 7.143871 -7.399971 5.790847 0.058894 0.133409 0.018598
-69.627035 46.640527 -3.110742 174.500871 -30.641831 -3.101483 -0.642899 18.313274 1.760287 -0.112980 2.080186 0.222285 -0.219831 3.428804 0.349033 -0.632250 15.979776 1.652965 -5.344523 18.758364 1.276745 -10.093256 -0.644214 3.991429 3.099684 -0.185053 -2.909780 5.723988 -24.278814 -26.871265 -51.064050 -74.087483 90.249701 4.955326 9.475135 -11.173810 -0.330665 -0.840669 2.385029 -6.280265 -3.145605 11.368746 76.158976 -83.003374 -110.622540 -4.888654 12.449577 5.696479 -6.141441 -55.941726 -4.111496 -155.245074 79.184677 -145.094983 -8.880779 -13.801570 -7.544828 -0.012808 -0.156398 0.052231 0.145612 -58.426762 11.841451 -116.610016 81.606405 -120.505959 7.153870 -7.411821 5.791662 0.072486 0.136714 0.018538
-69.628273 46.641414 -3.112381 174.496087 -30.643230 -3.123172 -0.661116 18.307143 1.757642 -0.115341 2.078207 0.222942 -0.225992 3.423709 0.347835 -0.648020 15.974965 1.658011 -5.404350 18.769849 1.321754 -10.214270 -0.610843 4.094622 3.171215 -0.284497 -2.955090 5.531441 -24.967613 -27.331666 -51.192187 -74.369946 89.948333 4.902408 9.370690 -11.191909 -0.314687 -0.865174 2.387242 -6.257296 -3.129616 11.357675 76.365160 -83.018351 -110.892909 -4.914797 12.498975 5.687868 -6.099686 -55.934304 -4.091696 -155.202349 79.194551 -145.046645 -8.908404 -13.789226 -7.526496 -0.018849 -0.152652 0.060734 0.119877 -58.430001 11.879643 -116.637480 81.591362 -120.530402 7.159106 -7.419543 5.795848 0.037424 0.135864 0.016193
-69.630559 46.641844 -3.113739 174.493206 -30.640999 -3.141053 -0.686257 18.293626 1.744183 -0.144244 2.066884 0.211162 -0.205273 3.431295 0.364193 -0.661126 15.969360 1.656121 -5.455003 18.782657 1.369154 -10.316994 -0.579503 4.185897 3.239040 -0.385034 -2.999225 5.347193 -25.654042 -27.786727 -51.247220 -74.669919 89.554883 4.853443 9.264649 -11.190848 -0.295089 -0.890174 2.394957 -6.226162 -3.090275 11.345053 76.675464 -83.042261 -111.252539 -4.945912 12.529736 5.673375 -6.045956 -55.932727 -4.089733 -155.140924 79.193240 -144.961987 -8.938376 -13.784384 -7.525296 -0.007312 -0.149896 0.076342 0.103213 -58.438946 11.907269 -116.661550 81.575739 -120.553491 7.168416 -7.422422 5.802269 0.041098 0.131740 0.015863
-69.630057 46.642621 -3.115455 174.478359 -30.643710 -3.169438 -0.696813 18.285685 1.754198 -0.119417 2.075041 0.223789 -0.244170 3.416843 0.352518 -0.669790 15.964768 1.658809 -5.502629 18.794150 1.407685 -10.400082 -0.549691 4.264223 3.303778 -0.489459 -3.053417 5.177203 -26.339437 -28.235129 -51.180895 -74.987987 89.024194 4.821546 9.145413 -11.163318 -0.270879 -0.917524 2.399744 -6.210988 -3.074593 11.336281 76.764263 -83.057276 -111.379891 -4.971874 12.550348 5.671971 -6.015156 -55.928604 -4.047366 -155.073910 79.189998 -144.877381 -8.963986 -13.770515 -7.528964 0.007912 -0.155769 0.084886 0.061817 -58.440975 11.980595 -116.727196 81.562449 -120.622893 7.162875 -7.435640 5.808462 0.035822 0.132964 0.016135
-69.630616 46.643279 -3.117504 174.461477 -30.647392 -3.189880 -0.765057 18.261051 1.718798 -0.077883 2.090739 0.242039 -0.248761 3.411483 0.354068 -0.685018 15.963156 1.660059 -5.536827 18.803763 1.440829 -10.462794 -0.518812 4.329511 3.377880 -0.598853 -3.112181 5.021880 -27.022407 -28.678115 -50.954188 -75.316404 88.311175 4.819037 8.999759 -11.096779 -0.235091 -0.947016 2.406457 -6.208844 -3.073844 11.337735 76.704396 -83.053110 -111.345315 -4.994271 12.563144 5.678136 -5.931948 -55.931427 -4.018345 -155.105528 79.195808 -144.912044 -9.021012 -13.744100 -7.482782 0.009494 -0.160311 0.085426 0.032176 -58.440243 12.042477 -116.760552 81.554027 -120.660156 7.152907 -7.442893 5.813151 0.031210 0.132807 0.017044
-69.630630 46.644089 -3.119934 174.447426 -30.653279 -3.214172 -0.790725 18.250741 1.719999 -0.076196 2.090139 0.241344 -0.230571 3.418603 0.362207 -0.731213 15.948055 1.654568 -5.564124 18.815573 1.469732 -10.508245 -0.485982 4.382088 3.452523 -0.710777 -3.172053 4.884139 -27.702429 -29.116859 -50.545943 -75.640311 87.398395 4.846855 8.830509 -10.998737 -0.197544 -0.974586 2.413480 -6.194249 -3.038486 11.334105 76.726559 -83.045531 -111.374151 -5.004214 12.567744 5.682317 -5.899104 -55.926654 -3.974373 -155.087137 79.197891 -144.899109 -9.031696 -13.728822 -7.487654 -0.005598 -0.160135 0.108634 -0.000549 -58.436411 12.106202 -116.786335 81.547279 -120.687528 7.145980 -7.451971 5.812389 0.029772 0.133615 0.019904
-69.632338 46.644573 -3.122366 174.440130 -30.656242 -3.231020 -0.813515 18.242299 1.719123 -0.094498 2.081934 0.235155 -0.206404 3.427534 0.370122 -0.850676 15.905431 1.639652 -5.521228 18.855883 1.479744 -10.539725 -0.452620 4.424580 3.591913 -0.799251 -3.242772 4.762650 -28.381737 -29.552009 -49.950968 -75.931268 86.300792 4.900582 8.647993 -10.901070 -0.081151 -0.958424 2.404386 -6.184458 -3.008738 11.334657 76.789222 -83.042269 -111.442285 -5.010764 12.569148 5.688544 -5.879847 -55.923596 -3.948375 -155.036431 79.193383 -144.842321 -9.046382 -13.724337 -7.496671 0.004437 -0.161824 0.116238 -0.023498 -58.432158 12.149805 -116.781927 81.541971 -120.687596 7.147091 -7.461864 5.813179 0.036803 0.137461 0.023493
-69.633470 46.645127 -3.124924 174.436925 -30.658912 -3.252253 -0.814576 18.241619 1.736155 -0.130772 2.067882 0.225122 -0.249341 3.405834 0.360311 -0.864089 15.904864 1.638317 -5.510963 18.880113 1.494380 -10.559712 -0.420025 4.460471 3.685181 -0.912655 -3.309342 4.650972 -29.062153 -29.984904 -49.170529 -76.164287 85.035692 4.962988 8.459442 -10.831468 0.012790 -0.928550 2.395718 -6.181473 -2.998524 11.335547 76.957933 -83.062586 -111.648191 -5.024705 12.576932 5.702329 -5.874997 -55.918419 -3.915374 -154.979881 79.189737 -144.782764 -9.053932 -13.722403 -7.506241 0.009591 -0.161702 0.121315 -0.055963 -58.427501 12.198951 -116.770076 81.535623 -120.679043 7.143807 -7.472826 5.813434 0.040497 0.143304 0.025721
-69.634819 46.646101 -3.128274 174.460422 -30.663978 -3.283889 -0.869174 18.233602 1.730751 -0.135362 2.065328 0.224560 -0.263361 3.393619 0.354899 -0.887037 15.899356 1.634053 -5.516096 18.895552 1.511023 -10.573220 -0.389272 4.490972 3.752674 -1.043891 -3.370628 4.542482 -29.742391 -30.418308 -48.227280 -76.333164 83.634583 5.007006 8.273095 -10.807636 0.023178 -0.992854 2.411078 -6.129390 -2.912356 11.332690 76.970743 -83.057937 -111.670509 -5.036847 12.582355 5.692531 -5.891308 -55.908669 -3.884129 -154.917833 79.181707 -144.730961 -9.052504 -13.721003 -7.495251 -0.001620 -0.162218 0.115412 -0.101507 -58.421417 12.239888 -116.754184 81.526933 -120.661818 7.129142 -7.480056 5.812759 0.046153 0.148856 0.028433
